<?xml version="1.0"?>
<svg width="384" height="512" xmlns="http://www.w3.org/2000/svg" xmlns:svg="http://www.w3.org/2000/svg">
 <!--! Font Awesome Pro 6.4.2 by @fontawesome - https://fontawesome.com License - https://fontawesome.com/license (Commercial License) Copyright 2023 Fonticons, Inc. -->
 <g class="layer">
  <title>Layer 1</title>
  <path d="m18,256l25.68,-208.41c1.8,-14.63 14.06,-25.59 28.65,-25.59l151.92,0c13.52,0 24.42,11.06 24.42,24.77c0,2.93 -0.54,5.94 -1.53,8.68l-41.72,112.8l125.52,0c18.2,0 33.07,14.99 33.07,33.55c0,6.76 -1.98,13.35 -5.77,18.92l-173.18,256.86c-5.32,7.86 -14.06,12.52 -23.34,12.52l-2.61,0c-14.15,0 -25.68,-11.7 -25.68,-26.05c0,-2.1 0.27,-4.2 0.81,-6.31l42.35,-172.49l-129.75,0c-15.95,0 -28.83,-13.07 -28.83,-29.25z" fill="#fc0505" id="svg_1" stroke="#000000" stroke-width="15"/>
 </g>
</svg>